<mxfile host="app.diagrams.net" agent="Mozilla/5.0 (Linux; Android 10; K) AppleWebKit/537.36 (KHTML, like Gecko) Chrome/138.0.0.0 Safari/537.36" version="28.0.6">
  <diagram name="Page-1" id="0m9Rfnz4xepq9dFrN6uO">
    <mxGraphModel dx="1246" dy="1853" grid="0" gridSize="10" guides="1" tooltips="1" connect="1" arrows="1" fold="1" page="0" pageScale="1" pageWidth="850" pageHeight="1100" math="0" shadow="0">
      <root>
        <mxCell id="0" />
        <mxCell id="1" parent="0" />
        <mxCell id="9BSjSQqRRKVnlHQiKrg5-1" value="" style="swimlane;startSize=0;" vertex="1" parent="1">
          <mxGeometry x="78" y="71" width="200" height="345" as="geometry" />
        </mxCell>
        <mxCell id="9BSjSQqRRKVnlHQiKrg5-2" value="" style="rounded=1;whiteSpace=wrap;html=1;" vertex="1" parent="1">
          <mxGeometry x="277" y="279" width="115" height="132" as="geometry" />
        </mxCell>
        <mxCell id="9BSjSQqRRKVnlHQiKrg5-3" value="" style="ellipse;whiteSpace=wrap;html=1;aspect=fixed;" vertex="1" parent="1">
          <mxGeometry x="292" y="131" width="48" height="48" as="geometry" />
        </mxCell>
        <mxCell id="9BSjSQqRRKVnlHQiKrg5-4" value="" style="shape=cylinder3;whiteSpace=wrap;html=1;boundedLbl=1;backgroundOutline=1;size=15;" vertex="1" parent="1">
          <mxGeometry x="332" y="336" width="38" height="54" as="geometry" />
        </mxCell>
        <mxCell id="9BSjSQqRRKVnlHQiKrg5-5" value="H" style="ellipse;shape=cloud;whiteSpace=wrap;html=1;" vertex="1" parent="1">
          <mxGeometry x="131" y="160" width="120" height="80" as="geometry" />
        </mxCell>
        <mxCell id="9BSjSQqRRKVnlHQiKrg5-6" value="" style="ellipse;shape=cloud;whiteSpace=wrap;html=1;" vertex="1" parent="1">
          <mxGeometry x="281" y="275.68" width="120" height="80" as="geometry" />
        </mxCell>
        <mxCell id="9BSjSQqRRKVnlHQiKrg5-7" value="" style="shape=stencil(lVbLctswDPwaXXdAgM9zmv5HZuLUmjh2xnHz+PtSVZmIkIVpbrS8SxLAYsFBbl72d8+7genlcj497t7G+8t+kB8D83jc787jpa4GuR3k5uF03v06n34f7+ffz3cTclo9nV6nHd5nniMC0URj+pg/ZTj398PPmXAYjwtCEZTY4b2AZZuQE7g/oG5BySB4JN8TAsS4UkooqSckCG0TYkJ0PSEjh21CWF+pIBkxeEIiTShlm8BxFUOBN05wvu23iIENQgSpmCMCb+NJ17l4eCOpBMk9nuGM/T2kT2muGfJGwNyO/yRkU0csumg5Ihk3kgQXNYEMQnDgsCIYOooeYUXIlrQDYtRBs0HIAs99Gcjs59qeWhdsdtsU4koYIRsEQlTSjogGITld6SptMZonFLAKuiAYWvIBvg964YPXteFWeS2mmFxeOUBueryeJkSFr3I0tMRarNUlneHD1JplUedsVOG7+FWC6lwge/8+3urixvVd01iDf/rZdUloO/VwhoKqufw7vOG5jYjryWdQj3cQ4/bCbVw0PMEbxfW1pUjhLXmG6uVR4w11xtxm9hc+WD5U56NX8Xp76Kes8pkM/GQhSj0QIz+1l5SnRDhrWn73mfMfhLr4elU9jIfD/Chb/q9fYfXT/IKT2z8=);lineShape=1;strokeColor=default;" vertex="1" parent="1">
          <mxGeometry x="324.21152566779017" y="360.1165575419225" width="2.0578141429352854" height="12.752828468109328" as="geometry" />
        </mxCell>
        <mxCell id="9BSjSQqRRKVnlHQiKrg5-8" value="i" style="shape=stencil(nVbLbttADPwaXQlyuc9zmv5HgDi1UNcOHLdN/r4UBNVayp6gBXyQZM6Sy+HM7qAPb/un190Q+O1yPn3f/R6fL/tBvwwhjMf97jxe7GnQx0EfXk7n3bfz6efxeX5/fZoip6cfp1/TCu8zrhTKdUIF/pi/KE1v9vs6xx/G4yq+ZlLp4iVTLPcBLZHEPkGhxvcBwkzMHSJHahmkqCSpA7RCjGqykvsMtgQLAMgNQE2gTUq59IBGCey6xKWAFQC1KSvFftOrxt1EJCWuPkVp9wFRqTUPUJDBmBX1bUqACLVhcwCbR1CSBj+uxmWJAJAoudlIVMGAR6EUPYBBhmRdDz0gUgTjmpmEPUAAoDCVTQYBba0GqJuSEKAtol9vGsz3pOq8aSvokvHanCCMOCTqQuoyFCpIo3pDownMkllZcoC2mNttHqykjYAq0mjxTvapRs2Z4iYF0mimuvGNiBTUSIJvE2JO/87a2iyRCwSKrk3WB0D1/wBSX1JOi7fdBIRE2vuMVqggMWPqp8+OuQYEsTmzFNoSe5oDNHslERfOgONC1RVPijZr5tAvb/4B4i270wGTAktVWU6NazyiN7I/PLFoop2UwcULcuzqLZ6hO+bsyWVqYNqKLJK99j+DekryfIXFyu750D/d2T6Pt4frBfFlPBzm++X6f3+htE/zZVQf/wA=);lineShape=1;strokeColor=default;" vertex="1" parent="1">
          <mxGeometry x="319.7144804485374" y="353.29878017938677" width="2.4586713328653786" height="27.472945737125656" as="geometry" />
        </mxCell>
        <mxCell id="9BSjSQqRRKVnlHQiKrg5-9" value="" style="shape=stencil(lVbLUsMwDPyaXDWWbPlxhvIfzNDSDKVl2vL6e2QySSq3EcPNcbKxV7sru/N3p+3j27ojdzofDy/rz/7pvO38fUfU77frY3+WUedXnb/bHI7r5+Phff80PL891i/r6PXwUf/wNeByASwVRe57mPERAv3OPAyAXb+/AJQIFBQgyIw3AAVSVgBOkJIJCKwAsUAOBoCBNIeMgMYKWTZAClAccF4GpASsSZcEriwDIkPWK6Bz4Nwygn1bJqmDM4QIBLEBBCBeBngPsSlTBDRYk5RJs04M0agrMYSklfOQ0VwBnfYGQrY4ULtCQHCGN+pr1P4mYEsHHL02AuomjRVmihOAgQ3ScxEvVkiGmapMTUbFLFbkJiNMVaLR8UuRc9qubAt34eZJajaVq4HRdq2higZAIqnLVGNrsK6hjzoQDN6QurYVrVxtPcaW+CoQc3O77b4r5YrdLKX5el2luUEvAsp/ABTBaW9kEc4gjbGtUnaAltJA2hlJQmvI4Ns+Jolyxv/FF5oASyc0CFw5VXqC2ZTAaRt5NPlGiDo7hKbt0I/lmM4GGk+L2xuiNp1iIoOA7Lfo5NhN9fok+fOoYmy+T0oAGcwXjk2/2w33lcv37QVFpobLjV/9AA==);lineShape=1;strokeColor=default;" vertex="1" parent="1">
          <mxGeometry x="321.2583710703733" y="368.9408165715147" width="3.2230755116522687" height="3.2248481794399595" as="geometry" />
        </mxCell>
        <mxCell id="9BSjSQqRRKVnlHQiKrg5-10" value="" style="shape=stencil(7VdJbhsxEHzNXBvd3Hl2nH8YsBwJUSRDVrbfpweTkcmmVYpvAZLbaFTF6aV64eTvXrYPz5vJ8cv5dPy8+b57PG8n/2FybnfYbk67sz5N/n7yd0/H0+bT6fj18Lj8fn6YkfPTl+O3+YQfC69EqmlmOf65vHFCsrz5uBD2u0NDiJW4dASh4gG+UBGDDxXiqzN4idCe4Ds8U3HX8YnJFYOPwP6k5kaDd8D+5KhYvCB7AgUxeEb4RGz9ZQb4TGnAZ4CvJGz9lev4zOSzwQcQzyzkk8FnYH92xFY/DOyJgVIff1/JA4LPJL0Dc0pABsSRDx2hqsaBJEQo95KuFWpILpJsCAkEVb9fLP73m7eTTLWPkTBWUaAa7Acq+IAnToNBwAGhOEQogi6kGhvOFxDRi3dNyjKwn9fTGrwH9ogVac1UQZWphIrFJ3B+IAkWH0BXTGvPafAe+FtIBvtDuI7X7PNgP8BrCfiBUBHBrVOozQBSkLN9dE4xCJESrCYqnHxalXWoMjQ6dDJliy+olVISi0ciipR6B25VsV811hqE+tAbDiOV8hrwBu9BJ2W7StTL8L+GHzQRgb/vxWuZmV1CRwGDDAch19eZDhtE+Bu3px7/f3v6l7cnLdjc428krGk5DSMByb2uJs2NA+VsbiLBEtAw1io3ZayEBKafziIz7ufWhzp7XKN+ITio06p9JFiCQwS3ds6WgCayRn0gCJBq0VYULQFpo+TBaV1sgTZKsqv4je717svoHxD04fXu+7Tb75erc/u/vSvrq+We7e9/AQ==);lineShape=1;strokeColor=default;" vertex="1" parent="1">
          <mxGeometry x="310.6048082002644" y="352.6097704333123" width="9.203583251849304" height="43.55563481131616" as="geometry" />
        </mxCell>
        <mxCell id="9BSjSQqRRKVnlHQiKrg5-11" value="" style="shape=stencil(7VfLbtswEPwaXRfcXT7PafofAeLUQl07cJy2+ftQVZjIS2taHwvkJtMz4j5mVuSgN0/bu8fNIO7pdDx83/wa70/bQb8MIuN+uzmOp/o06O2gNw+H4+bb8fC8v59/P95NyOnpx+Hn9IbfM68USmFiiXt5W/GU4p+VrzNhN+6XBKEi54RCignBWUJIgMBU2BLeglwjcLKEXADBkXpLKCCkXMjHMwI7R84BRqZQrtoitbIvk8iQ4LokkgeEaJOYGgE6VwmuIyjaIVDuCIyqVAmmc7m9YjWkYglR1wmhqu9cTD6QA2WVROVcrizEvE5wFA2+lXkFzmrgDKT6rrIGd1DZjkQMPEB4SgaO+ss21ZoMgAtFNnAn63ClZN+OHOatXxzsa6BoUxUwU6KdEI48eHvsY0dDtMLP28TNaWvBZANXEHugZCWGROApewNHsdc2FQPPIJgqgg4O/Mq2TdySWRFw7lKFcAkGLqCrF8xXoJvY6j1CeLAC9sAetec2GAH2EJLOHqBNSqoWDs3nO2uDSRBIi4EzdBMHWxkQzJVw9RTNx5zbyuXouzOS9/hA8nlG+jwj/T9npKo+bwhKBZR10rdaAlSf2ln3sXKZ4Dv1KZyOJZB0ISlKuk6NLiQFfSiptelfd0hNzMscECE3bS6rhPrwPlWWfUBjo9iPdy00sujCwgsGOjhNFu62COD8fP0N9O+E+vBx4X0Yd7v5vrz8316Q69J8udbbVw==);lineShape=1;strokeColor=default;" vertex="1" parent="1">
          <mxGeometry x="295.6318845030297" y="328.22177034687036" width="16.918890894504674" height="61.74996507171225" as="geometry" />
        </mxCell>
        <mxCell id="9BSjSQqRRKVnlHQiKrg5-12" value="" style="shape=stencil(lVbLUsMwDPyaXDWWbPlxhvIfzNDSDKVl2vL6e2QySSq3EcPNcbKxV7sru/N3p+3j27ojdzofDy/rz/7pvO38fUfU77frY3+WUedXnb/bHI7r5+Phff80PL891i/r6PXwUf/wNeByASwVRe57mPERAv3OPAyAXb+/AJQIFBQgyIw3AAVSVgBOkJIJCKwAsUAOBoCBNIeMgMYKWTZAClAccF4GpASsSZcEriwDIkPWK6Bz4Nwygn1bJqmDM4QIBLEBBCBeBngPsSlTBDRYk5RJs04M0agrMYSklfOQ0VwBnfYGQrY4ULtCQHCGN+pr1P4mYEsHHL02AuomjRVmihOAgQ3ScxEvVkiGmapMTUbFLFbkJiNMVaLR8UuRc9qubAt34eZJajaVq4HRdq2higZAIqnLVGNrsK6hjzoQDN6QurYVrVxtPcaW+CoQc3O77b4r5YrdLKX5el2luUEvAsp/ABTBaW9kEc4gjbGtUnaAltJA2hlJQmvI4Ns+Jolyxv/FF5oASyc0CFw5VXqC2ZTAaRt5NPlGiDo7hKbt0I/lmM4GGk+L2xuiNp1iIoOA7Lfo5NhN9fok+fOoYmy+T0oAGcwXjk2/2w33lcv37QVFpobLjV/9AA==);lineShape=1;strokeColor=default;" vertex="1" parent="1">
          <mxGeometry x="302.1975750781669" y="121.24481785037119" width="2.2228106976913766" height="2.224033227199972" as="geometry" />
        </mxCell>
        <mxCell id="9BSjSQqRRKVnlHQiKrg5-13" value="" style="shape=stencil(lVbLctswDPwaXXf4JnDO4z8yE6fW1LUzjpO2f1+oGroCZaHJTaax4AILgBji3dv+6XU3BPd2OZ++736Oz5f9EO+HEMbjfnceL/I1xIch3r2czrtv59P78Xn+/fo0WU5fP04fk4dfM44zUpxQwf2eT0JBzn9PHmfAYTwuACUhJQXIGdltA4JH9ArABYm3Ab6CWAOondwGRHBQAO8cnMGJQR0lRvVG0HChZ+SKETO4858RDP8OpHPKHsnwf42u2VP9j/+kM0rC0NIMoSj7SmDats/wOj81gwz+hFq1fQQZ/n3oEySAEAxAaf4WACuCdYqqiG70QRAC3Q2MkAxAAuukkriwRMiIHaAiR/OGrpeljKpVpqKz1mEaB0bQnuG7wiZbh7y6QTrNUtrDrwBctwG13b9gZMUshZb7aRQsQki61TigGsPIwWsNiFDMVva6jCi1ebnBJ+tOIGcqkNqgWtS1xf/L9tc2aYCYGsXbgmVUrZhcaQggoyfrC3ybrrdni298m70zu4akRHNnb70domeNnX00BJZ66R4PkdBIKMuc0ApHFENgrojaf0E04pV+cl0PI1v8efW6xlbjtyvUrZ6naRxbIVwn53UJkXFsx1y0xpKkagX91TXnEwD5+LdVvYyHw7yULf/vtzA5mje4+PAH);lineShape=1;strokeColor=default;" vertex="1" parent="1">
          <mxGeometry x="306.51172178155184" y="318.69046345077936" width="4.914137747623343" height="4.650219314925505" as="geometry" />
        </mxCell>
        <mxCell id="9BSjSQqRRKVnlHQiKrg5-14" value="" style="shape=stencil(lZbdUttADIWfxrca7b/2Guh7MENoPA0JE0KBt0euZ1uvHJ/CnWPri1bSkbRDuHnZ3z/vBs8vl/Pp1+5tfLjsh3A7eD8e97vzeNGnIdwN4ebxdN79PJ9ejw/z7+f7yXJ6ejr9nv7hfeZcIZaJ8vwxv/EUy58XP2b7w3hc2Aeh5Hr7SMzbQGbKoQNiJZFtoFYKsQNqJF+3AcfcTvCXSJQSdCG5BzIJAoRqH4S+4QyAQqFPk/pk5CGRyxYoHgC+fW7AIg/XCSYfrQsBQUihKhYIwINkcsWmKToAJGKTpkIepEkiZQMkqigG9dCnSdWUgfw0Bm/EFCgFAMjKg2+S36xDtQADgU+lNml1VLGYbAy+1X5TrtECFRRuaohkswQBlZqJQRUP9H2tqzNF1BEqTlOIAkutn6sRk1BBXa1aMx4qJZTX0ObQAoCVc22sfBFQ9eW6OhKSa6ayDhrEoB1kR5mmFbfclToAIGY7BVKgAACvaTVLS8iBSju75DIcGtqgvXkiAf25EmqEKlqN4UAZNYL9dw93mzZ6v6kcZTCyQ9t7zZxJgHoSFTHmaDVrg7ExZzAkHLc5uLAHh3carLfHAZl30e4npoJuFlp3s2Nhu3/3MvV/e334d3N7HA+H+eK3/G5vevpqviWGu08=);lineShape=1;strokeColor=default;" vertex="1" parent="1">
          <mxGeometry x="410.38027131068316" y="338.70154236052247" width="7.523354547344031" height="14.405756649418656" as="geometry" />
        </mxCell>
        <mxCell id="9BSjSQqRRKVnlHQiKrg5-15" value="" style="shape=stencil(lZbZcsIwDEW/Jq8ay/L63OU/mCktmVLoULr9fZVJA0Qul/JmjE4syVeSO7l5Wy1el513b/vd9nn52T/sV53cdt73m9Vy1+911cldJzeP293yabd93zyMv18Xg+Wwetl+DF/4GjkulONAeff9u0Np3Lgf7df95sQ+FkphZu8TMQMgkMwPCELOnQdSIZ6fkAJV4FKtlHgG1EQxnwfYucmDA5EpgCD0iGiOKOSRTxpEnQMVRq0uc7FALAAQys4C1QOAm6AVqOeBUkiSBTICErkGkACARhuatwSCLkJi0pqpXACam3YgS+qSy1ZMHlxcibYgapzE8jegHosFoDQcBT8HwlS056RhKmgAEgA0htq4hE7QGHwTNFJrJV9tWgUFrdo095CJBQK5ASpySTtfU9MZtA31uJqgK+4agWJTDwXFwFTnaj1pVX+LSfPKzRG4Rm2atM/ggijBpgn1GS255C3AQExXA5Gn3nuYEAlmSXQezNUXPEXQmAJTNlNOmyG4arYVF+AEcrYahAqoz2ZcCRy5zdf91Mj/57u+AIC5Zs5olBzQdLDOOIrAPE0VdTRn1N/tPeFy4SbWC/ZCIV/hDkcrNBwtZzvPcDKvfa1dttfF8Wn42K/X48vy9H/7lNSt8Rkqdz8=);lineShape=1;strokeColor=default;" vertex="1" parent="1">
          <mxGeometry x="389.2405807156854" y="347.64699772227766" width="3.8506983054684496" height="12.227955085827398" as="geometry" />
        </mxCell>
        <mxCell id="9BSjSQqRRKVnlHQiKrg5-26" value="" style="shape=stencil(7VnLbhsxDPwaXwlRL0rntP2PAHEao2kSOOnr70vV0XrF3R2jQA4Fmpu95lgkNRxS2l24er67ftrvvHt+OT5+2f843Lzc7cKHnfeHh7v98fCin3bh4y5c3T4e95+Pj98ebk7fn66bZfv09fF7+4efJ5yjEBrIu1+nB1WIy58nn07294eHmX2lOtqXQuK27TlRkBHAVPI2wDPFPADEE0cAiJRGl7KnIgCQqPIASOokiNlninEAxErtKwBwHQGRInZJxixFdwkQ3AAIQg6lNdoYgu95WwcI5TGtvpAHK6gDcXRJ0/Ca6FVALJSqBWTgUio9JxMgUAEbp0TwZQRIz9s6IJKwDZqBS7qCW2TJAWqkSslblwQB1GO2AJ8AINl6aGlFK0TyZh8SLKAUKCcLQORrgLGmlY6ogNQlG3SgCLjUgjbU8JRRDJrWbAEOpVU3znCJ+5MtarCzAI8ASr7FCkiLJVtt1SwlkKUmvQtqRLBxkhb1EMmBFURL1FsACrq43g1mAAEVVyZxn5EvgI0ryqVog2aUpWTVuwkZWmHR47REC4ohLoLGXbSE/vMEUDoiAHePJ7l35AFAalehGUBA0CJdGCcAw7TKYh8U4EGJCncyzwFANbLSu9p9QOqtIrBsKBkJ2UJmuGCp1J/HoFkLCHegNFKjQrXPGsIoGpOL68SQ3gu6vYP+VKbsjL0Hu1y1eJKxL8he7DDGsB3WpQzDDVD7akYxyFK1N6qdOm3X7bP9/wwbVQ1Ux/8XyOnqbJkJ7GslW//lkpx6b+xDhQJfbLwZ9yhTYgn6rx3Hj/7HTvBNeyND/cGWP8nMLuTA/qouOstPZK/5NL3A4e6UuwbO6hHzIdh6ZFS/sbt7tkf60I5/zsSL+NDqxbQyeHBhN+nNecNQ62sFbw5fVFFBStebM0EdOtCmnu+zfUX2bA9S0hV7S3BjMvbyhvZKiDr6U2B+9P/NhrHvkr3FaDMZMD4eaMnYCc3BE7yuUI2mBwqgCHTgMjlqm4Cq+H2O/a/nWESNf2+OFbaaHfBB8P3aohcQug16o2sLdJ54v7Z4BUC2Lq8tGJ4pdGYzM6oGzWhIlU6EGfnQTuspKhsuVShkutOyuE5FXTQ6G8OF+9dQewuc3/CCtIbS54TZHTLSVgWwmawidklW7sFRnw555aYdDUsh2RhygNTQJJoVRPsqCLqp0EjvNt+AFRrVxhWKHilBDBzs6FALHE50/jJNUWdedCZntkKmgIgAy7c8FQZdeg5n9hV1LHvon4356/XTmTlfABGjLz+zh9tsW26dGth6hqystnMNKGdnm1XFg49mQ6w9GmMWh6Q6KdSG/d+9xrtsrx/O7wxvD/f3p1eO89/tO0Z9dHo/GT7+Bg==);lineShape=1;strokeColor=default;" vertex="1" parent="1">
          <mxGeometry x="332.62035171975594" y="370.9185345475463" width="2.82241478986727" height="9.080823416146442" as="geometry" />
        </mxCell>
        <mxCell id="9BSjSQqRRKVnlHQiKrg5-27" value="" style="shape=stencil(lVfZctswDPwav2JIggfwnKb/kZk4tadunHHc6+8LjSrWhKzt5E2WsSKOxQLc8cP74eltv0vh/Xo5f93/PD5fDzv+tEvp+HrYX45Xe9rx444fXs6X/ZfL+fvr8/z77WmynJ6+nX9MX/g14wqFOIFS+D2/kEJxfvN5tj8dX2/sY6M6AjQsn7gLSJVyGwGRimwDWBYHOiDR9HMLkBulMMag1No2oGSqMgIyKQDUQLkOgKbEBQAyiQMwCQi6KskYtH0i1m1Ai8RjDKVSAVkygPAAyEINA8qYVlZSxieMleZABaTVcsKjSykTBwDIlHUAGB0FZakToQPC8om7AGNOHQvXg7prb1z+y4PFPkByK1NSZx9AxFrW9hH4r40iO/8jKLIKVVcCasgfy08aWQRbLYYeX+8EiviAlsfupww6zQKQsQDReIszlMcDotUElbhQdSfkhbdbNfYcysubLRJV9QCkeMZSXcUQwAliZQ4+Swn1QfN6pHAsmH0dPapLHbccip5HGeTUIo5jihK0t6HUfF8q8MdGjOuDAOPVvLYP6Psmzt6fhvy3/IiLF/qjXocy9mfFoEqMvy9j/mWZoVv2aeSPCa8iIWqkrmkSVJYPA2Q1k235EcS55KWFE5xnBgjjCdPEBOIlcSFBr1qjgE4IPoZSKIO6NfFTv9oiAohhM1nHiWlDNwFA7UtBZ4a1At6NnFTYytmAeJXm5dEEU8AMscXGCfA0FsEJ3HzQN3Pr/lZblqnUj+gb3P1BWBbqdIDAjk5+c1GGO2okjd6+AHbHJSM3W7aAsoWV/3YiUIDgBcwkWUENVnuCST7avDrJur1AFgXiceBIp9WGvTh/KlTs6AlhrEbbst1pVvYM+owpruwRQ03/nWBnKMAfvQj+394e/t06X46n03xpvf3f31Lt1XzD5cc/);lineShape=1;strokeColor=default;" vertex="1" parent="1">
          <mxGeometry x="292.94069101059904" y="372.79289431125915" width="7.651313933609482" height="6.451295373721198" as="geometry" />
        </mxCell>
        <mxCell id="9BSjSQqRRKVnlHQiKrg5-28" value="" style="shape=stencil(lVrLchw3DPyavaJIgs+z4/yHqyxHqiiSS5aT+O8NZouzw+ZMb3xbrYAhiEejgdmLfvj2+OnrwyW4b+9vr38+/PP0+f3xor9dQnh6eXx4e3q3Txf9eNEPX17fHv54e/3+8vn699dPXbJ/+uv17/6Ef696TnzoSsH9uH7Rmvj43ze/X+Wfn1528l5imuWLJHcuH6TA85O0ei4fpZVZXkXbuXyR4md5R+W9F50VapZaiEKSpLNCkEZO6C6tk0Kp9MohYQxKlEpiEJrk2aTixftzBVXJbVLI5rdEFIq4+YRsgckkbE7CfIccxJO8iCppNik1cYEoFAlz5qUkRc8VkpMKJwRRcocU8dKxSSImpSwKCmYkO6FIA4UkkQTOfOLnO5jfCsnW7CTGWSGII7mUPaaGhVJJamQVN1eo1lGDxwpR4nyCZVdgCoYQc4mqfcPuYBAECnHc6lhhw7hNQSmKFculOfk0jCo/VggSwUv2CHaCxXX2Uq9ypmAYMedSqMMNxwoJK87AM5FcKnkk86aQpZA4mAJ4yRQcKdFSpM6o0bGQXbpKBpOiFFJxpUldFDK5Q3WYfP0EkkvWDZzHOzC3mkKO6KVIYKbqYlKm/aEmTO8eaXaHrSfvcokVULX+4PAE1uNqRag0BcYzapPQFi+RE6zvAzMJHFubR6i0SEdiUgvYdoNSuDfqUuGEMPx2rGBNFtzqRoUcKyw17dt4xLFCHi1wU6i0obQl0p5TB1MAEPB5+O1YoYoDhTRI46nC7FYfKRPoCnMBeaUg0DktmGSxZ8lnXgK3Go4wL2VEb0N7dmfz4WxRFc/ClrHpZn7jPFjzRpZojzZ5KM8onoUg4xxgLIPbD5Xg+H0NTRLIM9pj8tGjPKubMuK/k+dV0PD5ngCqpajH+0ZmTx3huclnZo/JK8g3XjJ+5i+e50Md5P0mH++gBJQkz3+rSCgwjhEF89NziFgGHs/9mVf7I4vvUr+et448OMQuXvz5CfOTkfJuDz6fxmvBKzcS6n8Cohtjw5m8Ij7cqUdofI5Ojz3fIshTvFp6jBsGntYL+j+x+B7UI6N0XR7a8FganNpfQZ7i7a/Kmz9neR2Lm1M8nPMtcfysIzy3/qWsAdcBl9tKZNCQM3nA8zYcfCxv/wbO4XkBNGT5RiFYBnnnFqZ1h6U09GnnQezSDdcPxrQqQ4k2uOGOy7FJ3BRgOWBskfIgmwvg0pWOW73wIVHNSM54IdL3OTV4qfcOVstxmc+Ug5EuY2/ko0rAOFj5UJP8MnnwLWfbFoi7+SyTE2pbRpVKO6ZNgAXi0MZMeDZjwqyvhtnMpIXDqh+odqwQcTlgJzCabwoa8Q6NRNpG95jRS5VdOoyN496t7IRlIR94xVWHyH1vErdOD8mX6ZxcGq7YwzYtnG11wrI3YrN+KQfZmsilSx7dbOdWhsZ9WQbp3Sjelzj60y6XlK3jFBmGZWtiJ/jlhEA5fG5LAUVKOvMyiWuikc7LlKmZgkBO2Na1UFzKOjaOm0KjgcsBQSA6WqLZ4+QYA128pobvFWKkG/NUkatGvhZNW5PdFAptuylKnushcXqe/KivTUEHYT9UMAOA/ycOAuYTIMTmNzaxxW0/vjG+QDfmuowAll1sadmzf3arJTyDGXX49qV4/mIuIdfoOMJe/blB2DaFRuc2419QQNZiGP0xmgpspvKtf0WUMWrAmHrCQdLoENu8KG5dG18PBhx8+mhA7Fne+hknZRx3SbvGN6huuHsvTyrHLXzV8dHWIWW4rwCk5DYYnMjD6Nk4iXH4NqF7lETY4ejfxwgSYYero8Z3ocucZPJs9+Jw+2vybLZ12AX78Ecz7td+QnFf3j7cfq/x5en5+fpzj/3/8fcd9tX1tyH68Sc=);lineShape=1;strokeColor=default;" vertex="1" parent="1">
          <mxGeometry x="285.8326922015872" y="325.7828699880655" width="53.37872021116298" height="51.2069650838689" as="geometry" />
        </mxCell>
        <mxCell id="9BSjSQqRRKVnlHQiKrg5-29" value="" style="shape=stencil(lVfLbhsxDPwaXwlJlETpnKb/ESBObdS1A8fp4+/L7UJrk1lPkdvGmVlR5HDI3fDD2+7pdbtJ4e1yPn3f/to/X3Yb/rJJaX/cbc/7iz5t+HHDDy+n8/bb+fR+fJ7/fn2akNPTj9PP6Q2/Z16kWiZSCn/mH3qhmv/98nXGH/bHW3yikiwhUgAEPSEGQ2hCIQKCBtAsIWNCp2Lv0AIxIHCmZAlSiPt9Qg4ULKF2eEIWit0SIgnfJ5RM2RIKUy/3CTVRtiHlQgIIojmxhWOh0gBBKNmQOIxErxIa+0qnTCUAgvi0xg6z1DpVe4eol5b7BNWmOLVSqeCARinaMuArV2rs8AFdoFCzKcojyffwTqlMGehuwtv7qkxAfhQvNv5IBeGrz2eghuJpFJrDJ/R+LbA4PGp9rS+zx4N69UTNx8OgB3qmWB2+I3wZXnjNp2B89vWqQA+KTzYepgr0pvEX28OLz6zjVV72/YUiij+N8lzxMB5Ntzh8Qw7RvD71/ah/xfeLJgz1Y/WWlbE/lCGXa/4F92O0901QD4ovNp+RGoqnEnu9oWGs+XF6CJSx4Ubf7wHEo/UV318B1Ff1wx/8AcT/WXwMy/lLgnSuIkcRvxBFwS2Z/aifaoY0vYyghVCpoCLwmNOL6JYlbH1y12HKC6HDMabbjLM5XWAEXLouY2LpswqNWvcbsSFVHla8vkE1rzyJYy9cJyQvbV1gOriDrj/Z9o4mOoG0atajI8ho1/XFtPrppP2B7FGllm2lVV3I7yp1d0CH/l79wqV4VOeygu9gfuui7vazgA2AfXvqAQ0ElIb93OArUHYc9nCDRwuX1sfKtDdqQBNhjMcbfAIq/WBH6jdogChePD7CeJw/9goHmq4zyeORwX/6c/G/eH24fpu+7A+H+dP29v/+W1Z/mr+D+fEv);lineShape=1;strokeColor=default;" vertex="1" parent="1">
          <mxGeometry x="307.63132419469434" y="335.3627012602209" width="12.420444845052366" height="21.92177163969834" as="geometry" />
        </mxCell>
        <mxCell id="9BSjSQqRRKVnlHQiKrg5-30" value="" style="shape=stencil(lVfZbttADPwavRK75J7PafofAeLURl07cNzr70vVWEekrQnypjhDicfMLHeSh7ft0+tm4vB2Ph2/b37vns/bSb5MzLvDdnPanfVpksdJHl6Op8230/Hn4fny9+vTjJyffhx/zW/4c4kLVMIcxOHv5YdeKcn/X75e8PvdYYGv1ByeSco6PmbqxQS0QjGtB3CiagNqox7XAyQT25RqoBDWA5ImYANKgDXkm4AcKYMmleS7lIRKBV2NVJIJkEoV1FB1StUGMNW2HtCYsv0CNyqgBh0TdxuQITNap8A2gKmBgB4p2hpih9TQAEdWZVcBXdIAtkVHxkXnkcA1IFBmOIdqa+hUEF5rtl3VpoKSSx8tvDKJOqi4NGrZ4WOGeLFqE2JA1BnvWEGC8lft2nwiJSA1rbc3gw9Uwfu1n1IdnpF98e37kVfUNPiywCMhq1UUh4d2qjqOrj8B1dtuGD0GvobPNh8e9rqGFzsvNS5gK5p/saJPlIFZa3+SzScPE1jrv5tXptwBXkjE4SvWYw3+/ag/Sq/s8wf1Kp+j128C+ahektdj/kCPznSpYL1XzzekL80/W72HcZ6v9ad5fQmaLw95LPSF+J8o+HwC4lse9F34A+LzJ/FNP2/nlcY2ch/fBh0X/g/e34vvZ4N6ieHqZ4sjT9Ap3AcBFodqB5/oakHOUnTG6BRWytuUtEkNDE2P7WCL1rUTnTK6q3T7BQk4QDcJSyNJMEB50e3cpMOD5o7wsdOV4JWQZXDr/lYa/ApYItwNNONsA9T9kJly99uQ0h250UwE6y6twpSUm9HaqZKFgX9lzwylr4AS0s31Rvcz0NQ03GSBbwAvfn3q1wXmfofGNeB9v8QLCHs5zx8AvLvZh2Z9g5EFv18qPgMhBL+vKJ4hPlrdqH00MLAb+1I8Wiiux8UCH0F/gt+f9L6LFqLP3o8/xuvD+2X8ZbffX+7yy//7y7v+dLn4y+M/);lineShape=1;strokeColor=default;" vertex="1" parent="1">
          <mxGeometry x="305.37688517669187" y="323.3308172982844" width="18.08137371270332" height="32.348843715015974" as="geometry" />
        </mxCell>
        <mxCell id="9BSjSQqRRKVnlHQiKrg5-31" value="" style="shape=stencil(lVbLUsMwDPyaXDWWbPlxhvIfzNDSDKVl2vL6e2QySSq3EcPNcbKxV7sru/N3p+3j27ojdzofDy/rz/7pvO38fUfU77frY3+WUedXnb/bHI7r5+Phff80PL891i/r6PXwUf/wNeByASwVRe57mPERAv3OPAyAXb+/AJQIFBQgyIw3AAVSVgBOkJIJCKwAsUAOBoCBNIeMgMYKWTZAClAccF4GpASsSZcEriwDIkPWK6Bz4Nwygn1bJqmDM4QIBLEBBCBeBngPsSlTBDRYk5RJs04M0agrMYSklfOQ0VwBnfYGQrY4ULtCQHCGN+pr1P4mYEsHHL02AuomjRVmihOAgQ3ScxEvVkiGmapMTUbFLFbkJiNMVaLR8UuRc9qubAt34eZJajaVq4HRdq2higZAIqnLVGNrsK6hjzoQDN6QurYVrVxtPcaW+CoQc3O77b4r5YrdLKX5el2luUEvAsp/ABTBaW9kEc4gjbGtUnaAltJA2hlJQmvI4Ns+Jolyxv/FF5oASyc0CFw5VXqC2ZTAaRt5NPlGiDo7hKbt0I/lmM4GGk+L2xuiNp1iIoOA7Lfo5NhN9fok+fOoYmy+T0oAGcwXjk2/2w33lcv37QVFpobLjV/9AA==);lineShape=1;strokeColor=default;" vertex="1" parent="1">
          <mxGeometry x="183.45481007677336" y="210.465660692823" width="2.302196794037335" height="2.303462985314257" as="geometry" />
        </mxCell>
        <mxCell id="9BSjSQqRRKVnlHQiKrg5-32" value="" style="shape=stencil(7VjLctswDPwaXTEE3zyn6X9kJk6tqWtnHLdN/r5QNZREqNxMbj3kZou7JLFYEJQGd/dyfHg+DNa83K6X74ff4+PtOLgvg7Xj+Xi4jjf5Nbj7wd09Xa6Hb9fLz/Pj/P/5YUJOv35cfk0zvM48R9FNJGve5geBQvj74OsMP43nDZwNZaPwDuEj+dLgPeXcx1tLITZ4eeABXqazDd5QYIAPlJ3CswH4SMUovEH4RCUovEX7yVS8wieEL5RaPZk80NMZ8knp+Q6+tPqIQYD+jonb/fsqWBff6hmJC9yP8lsibyHetv7J2D+FQuufUgXr5Su2eKkIBgUQMvlWIFfIgYhLIeZ2R44MSJkQkgrBkwU5YLN4eGGEWqa9JZQrSqx11yMEtUImA2SS4dT6VKYwERCSLvxJBwcIsQ6vmcO1LKKos1GWyMBMovueYFEQrs63kcmhIFwdXggJ2k8I3NZDWU7A7gqK4OGJOsXQnkjTFFilpLxha4308pBURXBds5dq7Q2u9uqZqey2ZBAh7xJn8QqlttWNShmZr+jGIDIYpJIQVB4iOXxuxKy9FJFbSy3hjVsTLmptvgJvF5OZjSYUtKWwC3rRrWc+1Z/Xo6pHMEkHHZGsHyUES7ndkg+Q8Hnn+bzz/Nd3HiGYHSGBiEVwVgRbLzW91wrVdNjXNf9N4N2W5JKETKGLUvABhaBrQPDoSiX9ZRcAg77MuvGzg0k2umdOioKciYfamhHFUH+SI0HfpijB/egrJ0W4HW7lyVB9U0fXiongRJGCbIONsHmzPg8jTJWtQqyvyOh4++Ab+Ltw+bG+7D+Np9P8rWA7rj8OyKP5w4K7/wM=);lineShape=1;strokeColor=default;" vertex="1" parent="1">
          <mxGeometry x="166.27885804270272" y="186.38595115415308" width="18.56834553545475" height="15.42808981891914" as="geometry" />
        </mxCell>
        <mxCell id="9BSjSQqRRKVnlHQiKrg5-33" value="" style="shape=stencil(lVbLctswDPwaXXdAgiCJc5r+R2bi1Jq6dsZx2+TvS1VVYkIyMr3RMpbEY7HAwHcv+4fn3RDp5XI+fd/9Hh8v+4G/DDGOx/3uPF7aaeD7ge+eTufdt/Pp5/Fx/v38MFlOpx+nX9MNrzOOoDqBIr3NH4pC098vX2f7w3i8sg8CKR1ACJJvAyQg5w6QEItjr0ihsw9g5/5crT2B6LZ9KShk7Jlv29cM7u+P4HjbXhksfYJQHP+1gmofLyFWpwL0HuA7QpA8lyrUhEDITpE1QbkHCFidJLUi9KyIiuBUubYY+xg4QJwXSgD1MXBEcuqcAyqvXnAAwshiY/CYlMqKGYIgDoCRqq2Dx+0UIb1LrdLBIWtKS12vyPQvb9sAhfQxtP52HpC8SpJb5yxLc310m9f9pQVg7cnrToaY7llyvM3sgNjfnxbmbttn1J6nFdm7X5F7PQ38KcDIXV2a75ZHhhORoQ5NlVANoEmOQ9MJkP8HkBXcs04qqqMvIrYRmoB4IizRKlgrZHXSmlaSN2maoy+tN81Y0OIygwuyAfiSx23UmmYmf1Q1boZkn1Cnm0Oxw7lJf3WiDm04Rxs1OaMkW31paU2OR1t1C45DZOWlFne7WI3CJgjFYd7muuMQ7/P1qB0+dqun8XCYV7Pr/+0u1j7Nexzf/wE=);lineShape=1;strokeColor=default;" vertex="1" parent="1">
          <mxGeometry x="214.9874263980065" y="187.5148009828597" width="2.475950545519468" height="4.386157839872019" as="geometry" />
        </mxCell>
        <mxCell id="9BSjSQqRRKVnlHQiKrg5-34" value="" style="edgeStyle=none;orthogonalLoop=1;jettySize=auto;html=1;rounded=0;fontSize=12;startSize=8;endSize=8;curved=1;" edge="1" parent="1">
          <mxGeometry width="120" relative="1" as="geometry">
            <mxPoint x="328" y="320" as="sourcePoint" />
            <mxPoint x="448" y="320" as="targetPoint" />
            <Array as="points" />
          </mxGeometry>
        </mxCell>
        <mxCell id="9BSjSQqRRKVnlHQiKrg5-35" value="" style="shape=stencil(lVfLbttADPwaXQku931O0/8IEKc26tqB4/Tx96UqyDUpeQzfZJmzu+QMh6shPn1sX943g/DH+XT8vvm1ez1vh/hlENkdtpvT7qxPQ3we4tPb8bT5djp+Hl6n3+8vY+T49OP4c1zh94STTqWPKOE/05tA0v69+DrF73eHq/icKSYT3yjU2/G1UGa7fppXWAW0RjlaQKfAtwG9UrU7SKEutwGBmdgiop4JJN07tWoAKREHAGhUgwV0iqBMvVDMBpATdQSIlCxvhalkUNdKuRhAZcodABIFsYBKrQCAULPM6RICdqhaJVvWpoUGPIh4MY1lANqQRMmWtYdZXuuARoX9kToAqHKyZVoFXAEPKXgeFBCAXFU5vNghAPHlQtwXRwI7FCFOj/BQCsmirAkB2mwqV8RFUKVSqduke4a+VDIFm7T6AiMAU3QAdR7QcdqQbOWttoAAqVC1TF85z7qYuneB0XkQQOYTXCXRQctJpRB9mQpIQiKVBREduID2aHRH0sIBqnWHbNXXhQKYEJqDs+/OlIC+tUqOatU30obyEFxDqIBB0kp1XgAY5JAjNfGAhBqCSaLPIYEdtCG4+Sp1YBvacm7IKQ8VARpFx0Oigo70KCBGb9+adAY8KHHevrVDANNJqNgq6YVFkBtXfyTNCrXoyLQlLnc4FdW+i9WSLlGxkyWrpRRhlUqgancYpxg4kgKcL8llxqznIB4Q7ozRBQ96TRTkxhStLal6kWf4mhZokzwvdqHgTrgzpAQvoEzB5noxg/X7qjdUmefKein9xTBQQ11MyV23ieHlef57jud5gfX4xdRkqJzQ/NUCj0wtRvLrB3SFLF44PA+49fgHv4/ux+vD/4+xt91+P33LXf/vP9701fThF5//Ag==);lineShape=1;strokeColor=default;" vertex="1" parent="1">
          <mxGeometry x="185.81908768492679" y="163.51303040320704" width="4.278598137260186" height="16.45407266285481" as="geometry" />
        </mxCell>
        <mxCell id="9BSjSQqRRKVnlHQiKrg5-36" value="" style="shape=stencil(lVbLUsMwDPyaXDWWbPlxhvIfzNDSDKVl2vL6e2QySSq3EcPNcbKxV7sru/N3p+3j27ojdzofDy/rz/7pvO38fUfU77frY3+WUedXnb/bHI7r5+Phff80PL891i/r6PXwUf/wNeByASwVRe57mPERAv3OPAyAXb+/AJQIFBQgyIw3AAVSVgBOkJIJCKwAsUAOBoCBNIeMgMYKWTZAClAccF4GpASsSZcEriwDIkPWK6Bz4Nwygn1bJqmDM4QIBLEBBCBeBngPsSlTBDRYk5RJs04M0agrMYSklfOQ0VwBnfYGQrY4ULtCQHCGN+pr1P4mYEsHHL02AuomjRVmihOAgQ3ScxEvVkiGmapMTUbFLFbkJiNMVaLR8UuRc9qubAt34eZJajaVq4HRdq2higZAIqnLVGNrsK6hjzoQDN6QurYVrVxtPcaW+CoQc3O77b4r5YrdLKX5el2luUEvAsp/ABTBaW9kEc4gjbGtUnaAltJA2hlJQmvI4Ns+Jolyxv/FF5oASyc0CFw5VXqC2ZTAaRt5NPlGiDo7hKbt0I/lmM4GGk+L2xuiNp1iIoOA7Lfo5NhN9fok+fOoYmy+T0oAGcwXjk2/2w33lcv37QVFpobLjV/9AA==);lineShape=1;strokeColor=default;" vertex="1" parent="1">
          <mxGeometry x="203.4045177367086" y="175.6562567751787" width="1.8959267715601582" height="1.8969695173176233" as="geometry" />
        </mxCell>
        <mxCell id="9BSjSQqRRKVnlHQiKrg5-37" value="" style="shape=stencil(rZbZboMwEEW/hlfLG7bnOU3/I1JIg5qGKEm3v+8gmgSP4aJKfQNzD7Pbrtzqst+cmsrqy/XcvTaf7fa6r9xTZW173Dfn9spPlVtXbrXrzs3LuXs/bof306ZX9k9v3Uf/h6+B06oOPWT1921BDwvPg/zQHkdyExXZTM8r1s0D3qqQG/BGBT8PRPbIZ0AgZYAFIhXrDKC7k3NAyl2ipHSCAHkJOOwSkQRQ0EZz2rUkaMGnlAOkHI5aVI5XwkKanAQSCKIvRGGBIgSCLgCCgKcC0BgoLEQDAVfE4HHQtnDJYAsSSCqCkZtwKS255AoLBluQaeUJwoAsXFQJV1q2BgO40qkIWuO0kpGAxVn67c0RUIOhnp7RhajlNsDFXwjCSwD5NLGVcabxthELgHCaQu7SKA9zRF3sG1T/I8BHhMtrHQ3MKx9CPu8m71QCMfChFvLmMPcZmQS0HGq2CDqD5VrIHSiCVsYKuYFyndfYwE2S5eJIh+dCMQUGnjv6NrYPOZpjluftpm87x5ychNyDjYsTGYXcgkbjr/JyZGAiXXGXgqH6Qg7//qeb2qKcHx6Xwl17OAx3yvF3eYnkpeEC6tY/);lineShape=1;strokeColor=default;" vertex="1" parent="1">
          <mxGeometry x="205.3267992827126" y="181.6628287221556" width="132.19089057407314" height="44.44319714691868" as="geometry" />
        </mxCell>
        <mxCell id="9BSjSQqRRKVnlHQiKrg5-38" value="" style="endArrow=none;dashed=1;html=1;dashPattern=1 3;strokeWidth=2;rounded=0;fontSize=12;startSize=8;endSize=8;curved=1;" edge="1" parent="1">
          <mxGeometry width="50" height="50" relative="1" as="geometry">
            <mxPoint x="263" y="369" as="sourcePoint" />
            <mxPoint x="313" y="319" as="targetPoint" />
          </mxGeometry>
        </mxCell>
        <mxCell id="9BSjSQqRRKVnlHQiKrg5-39" value="" style="endArrow=none;dashed=1;html=1;dashPattern=1 3;strokeWidth=2;rounded=0;fontSize=12;startSize=8;endSize=8;curved=1;" edge="1" parent="1" target="9BSjSQqRRKVnlHQiKrg5-44">
          <mxGeometry width="50" height="50" relative="1" as="geometry">
            <mxPoint x="-149" y="519" as="sourcePoint" />
            <mxPoint x="507" y="510" as="targetPoint" />
          </mxGeometry>
        </mxCell>
        <mxCell id="9BSjSQqRRKVnlHQiKrg5-40" value="" style="shape=stencil(lZbZUsMwDEW/Jq8aSd6fWf6DGQrNUFqmlO3vccikiRV6Gd5c59i9kq9kd+7qdXv3sumUX0/Hw9Pmo78/bTt33an2++3m2J/qqHM3nbt6OBw3j8fD2/5+/P1yN5DD6PnwPuzwOa5jSm5YpPw1TpRAJf7M3I78rt8v+EIqDZ8zSbrMq5Jr/yAFCu7ygqCUfbPAe0oCFEXi3Cxgihny0RteQQQlkVPDswd8nj4veIV8WulhwBebUaaA4i2UYsMLCcpnoZINn8CBDXxq+Hrkf+hp8+mIcbyaDB+Q/kzR8hk5Ok2GPxuOGMWbSL3Zv2C/BasH5jNOdpl5h/ITKEaTf7h/rT81PBe8f1vyQh75vzYQ688cYLze+t8hPWld71B/osyWR/nMNj9Mguq3kATDe1wvq/5T8P4mnwL9L3yObz5gQQVQKDvDZ1yQ3haAQwdc+fAPPkTS0hZkIg8C0DAZ7HzHZGhRWd0xRUhBDXsKraK5KV3gecVH4IlzR1vwGeip+tv9F4d+YYHpWXOX/z1Dk9ylIGBSIU6WR7d8vaLZ8gJOrF6JbY8bujzwUM1GsLyA/KxKpnYNrF8MH+GziSfHL3jUJP77LPubr4P5DfjQ73bjE3L53b4Z69T43nQ33w==);lineShape=1;strokeColor=default;" vertex="1" parent="1">
          <mxGeometry x="-135.29006165752094" y="596.4368791526124" width="37.85534992447167" height="42.109590209968125" as="geometry" />
        </mxCell>
        <mxCell id="9BSjSQqRRKVnlHQiKrg5-41" value="" style="shape=stencil(lZbbcoIwEIafhtudHElybe17OCNWplYctae37zI0Aov8yl0IXzabPRd2ddlvTlVh1OV6bt6r73p73Rf2pTCmPu6rc33lVWHXhV3tmnP1dm4+j9vu+7RpyXb10Xy1En66c4pC2R4y6rfbSCX5bue14w/1ccDzXzXmDbk0zxtHbnxBcFSG+QPeyBtcScHPH0ghK5wPKHIG8skLXjvAR3JK8EpBPgbJW8AnslrwBumfqJTvRR5jPo3111B/rW7v6w949OAkDWpIacgHyTsQEcw7K/iIAiLl6zNvSUXoMO8Fr5E+MYt7Un7IAT/QHwVcIDuxD3JwIF1K+yN/MT+2j4YpzLyRAZrwe51MMI8TOC5KgEhGyocJFimYJQmcsvufLBBJxo/KATvH/7u/52E8pGzu3l8Wy5/wD+RHmV8P5Hsn+LDIPswD+d5NOkDKEX6/x3BTGj8gBJjBkaxoYh56zMgEbmswanoT+bcafL/kTiq0wiF6S9jhBUAhrvgTPoIUVjJj+qYzw7sJbyGvhT4RlhS2hpM8KimTDsa8BvZkXkxBXLOhfFER2xoJAkjJishTVoT2WTaVPeZ50Y+Au/pw6CbI4X85MvJWN27a9R8=);lineShape=1;strokeColor=default;" vertex="1" parent="1">
          <mxGeometry x="-16.971062800152595" y="607.1969096231785" width="58.66790825324044" height="53.55004550273981" as="geometry" />
        </mxCell>
        <mxCell id="9BSjSQqRRKVnlHQiKrg5-42" value="" style="shape=stencil(lZbZcoJAEEW/hteu2Zdnk/yHVWKkYtRSs/19hiACl3gt34bhNPR6Zyq7OG2Wh7oy6nQ+7t/qr2Z13lT2qTKm2W3qY3Muq8o+V3ax3h/r1+P+Y7fqng/LlmxX7/vP9gvfnZ2SbFojo366jRzEqb+dl47fNrsRnyUAr0Xl27wxEtLEIGZJ5raBt+LyxMBFSYF4FEVPXVLiHeUvrwfesIiTKA+8spT3GXkScM6iFfA6Ud5b4B2pQOETxpuZ/1ny1H8tjuWz8BH4y8YtPk47wojjvHPAJ5afhP5b0ez7qf/9wBuWz9inb8TzfgP/Le+fKArjDcz/MM8n7ecgAesbWD7L9wPw2nP/NfQb9T+KxXmxzP8iBxF4dae+6I/i855xvrTm/Ynza+/0P+pJ5HzG/Buih1pd4xsMEgs4Y0KNWB6wRz4ygX6Q9x4D9qUC7Izx2HGpSApLUen4aYayozNjewW/8qWIhDd4BLRFJCk1eISNivh/BBL87AdkiHWfwBGfyBAr1JTCBxKAQo0rPBNRNfMnSaI8aGI71UR0ZyPQqjYZssIn5D2N1wTkmQiVKwnUK9AGevRadp8vi+EOuG622+4KOX6Pd8ay1d037fMv);lineShape=1;strokeColor=default;" vertex="1" parent="1">
          <mxGeometry x="231.32107949876604" y="602.3446741142907" width="51.17871009451033" height="51.56437420700609" as="geometry" />
        </mxCell>
        <mxCell id="9BSjSQqRRKVnlHQiKrg5-43" value="" style="shape=stencil(lZbZbsJADEW/Jq/W2LP6uct/IEFLVAoI6Pb3nSiCZky5EW9DOE58vU7nH47rxX7ViTueDru31Ve/PK07/9iJ9Nv16tCf6qnzT51/eNkdVq+H3cd2Of7eLwZyOL3vPoc3fI92jkIcjMT9jA80n588j/ym3054ycS5MchMGm4bRKbiGoOQSfS2QXXASWPgKArkAxteMK/O8A4I0EIhWN5BXpPhGfFKwer1yH+lnA2fQMYqb/xhrLfyaviQIV+C4UuBfGx5IcH+MBs+4vgnZ/jkIe/SPXymGA0fcD2zt3rR+xMVb+OJ4p8oXeUrQT6L4R32R219zsRHbH16hnz2hnconoXE9tdMP2a1PO4XKXaeIL1KyeqNmL+Kp4L4sLvo+0uYn/kAGz5jwck2AM8IvoePgWLrT1CYMakC2gxkf14i/xr4c8FflpieZ/YNnsXyGTlEmS1fQInWBo+WV8DX/LR6Jzm/YeCvBCjYGc6uvEEwmBGXCp7waAe7fwSjHVzVtS1TmxTNuKsOqDzaAZeNPuEZ+sPtiBiGEvTnvlvTPF8Pf1e0l36zGW940//tla4+Gq+D/ukX);lineShape=1;strokeColor=default;" vertex="1" parent="1">
          <mxGeometry x="425.5479881752806" y="552.80827813054" width="53.335243104250274" height="66.9321448857624" as="geometry" />
        </mxCell>
        <mxCell id="9BSjSQqRRKVnlHQiKrg5-44" value="" style="shape=parallelogram;perimeter=parallelogramPerimeter;whiteSpace=wrap;html=1;fixedSize=1;fillColor=#d5e8d4;strokeColor=#82b366;" vertex="1" parent="1">
          <mxGeometry x="447" y="480" width="120" height="60" as="geometry" />
        </mxCell>
        <mxCell id="9BSjSQqRRKVnlHQiKrg5-45" value="" style="rounded=1;whiteSpace=wrap;html=1;" vertex="1" parent="1">
          <mxGeometry x="160" y="313" width="120" height="60" as="geometry" />
        </mxCell>
        <mxCell id="9BSjSQqRRKVnlHQiKrg5-46" value="" style="shape=stencil(lVtJchw3EHwNrwjsy1mW/6EIUSbDNKmg6O33rvIYPYOs7mzPTSKRDaBQS9bCh/Tpx9OX748P0f/4eH/79fHP568fTw/pp4cYn1+fHt+fP+RfD+nzQ/r07e398Zf3t99fv17+//2LrtR//fb2h37hrwsuVpeToqL/+/KTUFxt//7k5wvg5fn1FtBcAUCfn9gHdNdWQAyuBwIYbrQVwI+UggthBQxXBgFEF9YjpeRSJoDkfFwB1Q1yaQE0vwCydzkSQHZhvXROrnJAritAnpLdIbvaV8Bw3lNAX3co8QwwygooLt23gygLv/R/7zoBVZ6SXzrmFZCndh2+w6pLtZ29A+zQ/FSWwzusl27BDaatxYVVrC25wi5d8B1aphanyryqRqsusjt0F1cDao3bw8CHa8O1egzIwfn1SD1Mk9oHRBRrTxxgLK6X6an2AcX19Q69cYC4ytVr9OFSIYCBLz28KwRQvGvrkUZwmai3WHBa1XvE+ZT7gM0L3QA6eTgx+bh6viGfIMpXGhrQyFMM+wDxER0BlRypipRgh0KlJE4FYtwQe2A7iBMICBgMUDDGDXEz5NK1mx26S/0YIF6omB06eekW569vAJ74pWZcpVyahd1Wptu6AbCAIk4FdyhTf/cB3Tzc5m33AcOohngNohrihfzqZkakYu2iS3AHTn+6iBUszk+F3weILhk300h8ELdVwZH1yQ32AQPdvXyC+SU5cQbfWikTEJmAtooYmG8Vqdf14fr2k31AmsxiA3hq0+pUILA36maGjdMbIToCgE2LDXryDgLw6w7iFjqxOLnDWLVVHA+zB73D6r3FFzJXqQa56lIZUx2PABCyJAA0doc6/dwNq2SMTNxWgB2Sy0z5uvOrepcwP3EEADejVJppa0d7ELI+mLa2+esNIOrI7tAmYdsA4mbYDhUDe+LpgIbA9UhCGwvX1gFZVqYxbhSkcJJGReIqVVvhSIGye7EHcALJU3IiAFA+SS0Zu1fushqQJMxU+bZ4c5PtNnakhIlfzM5zzwfeO0b+cAljnGTsjCSKMx6rxUU/PdUhYJVSODGgiFIKnZITjQ8AaPNlDgHrHULlYo3TvjZApjmQiBWqDiHxgCIvvSpfiJT+qC6t8SF4SkMFAAn4oJUW3QCSLMr4rOqdGIMEGwhwkwEe0ob10eQJ2Hpv7J8mM8KLOlgzlWc3XjhS+QjJgcQ7UofXI943zA8c0VuI/xIUiPdq5vyBEkMhOMDow4yMRzmGx/WJJWID9VMcEVvfZpC8WU/0TfK2Dl6Cpp41ICfk64Xa9IDriU8p4snNech7Sf7fC64n+pMbVob4eXLBcoG8F6t4iH9C/WEkJHUXINLw+l+8z37FfUDYKNSny3E9VP/o+waTejVKHEOYgffqPxNLT3H5oKljnsaxST/MgLB/HPNaidKngAmORDxPju+RAIZM1dmbEJxnyDxYn815WIyXhM+en54HuJzKh8jfo/bIepa5761nOaw33iG5wu9rvp+Ieoo87Xr6ffSGiabU4q36PevDjvwZ/xFnP3A9oxthtmRu5Un0IRg+xglcQKYu6zs9TzLvyxhlMO/LM4EwE7xbe6H6jKT7zB6xNXhm7xhdMk0bPKZ7Kh+63hvCzWp13sgnTY90tN6ch5XFPEY71U/uf+5ab9h24PShmu4BdefXZOIa7dh1JTpCb7nS9kfcmh3XaB2J+OVzETqaNPqmiPaSeD9T2CTIk7INrbis5/G0yCPsChJCT0v6yt4irGfsVtlhhvWBtW4y9tw8NXdltx7XM3ULyM49LXdqq9asZ2y+ITvk65uxX88bHhH5g6dlEcmOGp6fhV/JvhJ+v7Bs0Fv9YXWdbqounpf9C9LPLYAfZcvon3mF3Zw/0J6wZPtQsoyTsBwWjaAASbPHYXqdmVcrMvZ3y1mDAPhG41Wyinyv0+xa1oM8eR9Ivw/8h6ePtnYfIiWgWtE1EZVWpYsJYYXGJNsS0bIdK26alkhofIeMrdrQea0yYzVUi5u8yAxHOiufblWumwJt4HVvrDOdPhyYstjOSVsHuLEYAy0NFiy9iDWwaK/aDYCT5lfFzmvydEJKAFBNSYHyde00Qf8h8ar0Vv7cALw/LYAGd6j84bay+AY4kVI3Y2F80GYMzBKzuEm2w8CiU+bDc8EbIn6djDk8E/QIAw21euv15UriPZFmRtUKD1YNyanSJa6uMF6knVR2pDpbVxu9PjHqilLSbjAPQDhu1ykDFgCM5mjFl18a5i9aOYuJwMGENXXeVIQOntAmluRryw96HJH3ahPStl5oVVVHrsx0BHWu3kx4dDqvqnNmqwF1PhGr8xyQCnrqBXToBAZneK2xm3lVpWesl5LQkw1ePdEBQTNIRkdzPNZblOCQO7Q+uycboNJRBO2nwDBc4ylAQX8/ONmQHCNWBLCOdgsm6R9nPRiskvnTPAz8jIYAciadhjMAVuirZpZ5dNrYEs8IoV0AjOrWgKF98NalOGsYhFHd4L0hqHZcByb2AdUMhhU6eS8hDdU10/pyMe0bbfiyHcKOjTJ1lTgOJQDxAoy55oY9hMFrWsItcFbtpGmS8R2ueew+IKIFdd6lFkIFdbzO+yZpzDzyJgSxpEb7aHAHz+fiK04KiG9LRKypTOq8ASr1M0JswR5aodUkoc7VjLkz5VOubckGm+03QySN51kCgALgtcH8P3eofCBB7oB/bhBpC0v/UAVoZafjQsmMCxU+Q7uzQ6Q2rUNahq2fiHWYaThGXPUdIEfhs/220ps56ZNED0o5iVcFkul9qaBZsdp4vpPqjGS3YHGSUbPaifaeTZLP6g7yPSyFdFrAitmMM5RZUjwCQD4gANYR3d3h7EhmB5bT6ASAR0DmAOx6F0qYBJBMDYv5Vq2URASwUohOCN4LGAZAj1RN67XQ3kQ0edmZWCumWWcPd/dfKp4D5B/XP4z89vzycvm7ytvf4x9Syo8uf4SZPv8D);lineShape=1;strokeColor=default;" vertex="1" parent="1">
          <mxGeometry x="-36.29394795584608" y="50.02275220999309" width="106.74729274067671" height="179.9100905588119" as="geometry" />
        </mxCell>
        <mxCell id="9BSjSQqRRKVnlHQiKrg5-47" value="Actor" style="shape=umlActor;verticalLabelPosition=bottom;verticalAlign=top;html=1;outlineConnect=0;" vertex="1" parent="1">
          <mxGeometry x="460" y="420" width="30" height="60" as="geometry" />
        </mxCell>
        <mxCell id="9BSjSQqRRKVnlHQiKrg5-49" value="" style="dashed=0;outlineConnect=0;html=1;align=center;labelPosition=center;verticalLabelPosition=bottom;verticalAlign=top;shape=mxgraph.webicons.bebo;fillColor=#695D5D;gradientColor=#100E0E" vertex="1" parent="1">
          <mxGeometry x="104.02" y="38" width="71.4" height="59.8" as="geometry" />
        </mxCell>
        <mxCell id="9BSjSQqRRKVnlHQiKrg5-61" value="" style="edgeStyle=none;curved=1;rounded=0;orthogonalLoop=1;jettySize=auto;html=1;fontSize=12;startSize=8;endSize=8;" edge="1" parent="1" target="9BSjSQqRRKVnlHQiKrg5-41">
          <mxGeometry relative="1" as="geometry">
            <mxPoint x="17.637601930610572" y="479.36463756229205" as="sourcePoint" />
          </mxGeometry>
        </mxCell>
        <mxCell id="9BSjSQqRRKVnlHQiKrg5-52" value="" style="shape=stencil(lVjZctswDPwav2JIghee0/Q/MhOn9tSNM056/X2hOpQNyNpM3mQJay1xLJfa8N3r7uFlu0nh9e10/L79vX982234yyal/fNue9q/6dWG7zd893Q8bb+djj+fH8+/Xx6myOnqx/HX9A9/zjhpJHlCpfD3/Y5QTf/vfD0DDvvnawBTEAvIxLIO6J1yMIAulAsARIpsAYlCWAe0RLUYQGOqAFCZmgXUTAIApVCzlEqjCBadO9VmAYFyBYBEYgG5UARZ4k7BAQIJKBwzlWQA3IjBG5I2QreATJUBoCwAkQoCzI8HIDXqeR0QG5VoATwSfRvAlC2lKBRBpWMgtm+IhRKgpITtEmKiFEErUa12fEZZbleNuh2eRgGwUfZ2uYk66LpAMblwNMphjOG81g/+PWQXziAzgZIlE8baV8JLduHva18Jl+rCIyATKXsySILikI+rcNCWmmb23AGZ5MUkUANktOau5ynBcCkuvCFZGDW/9EwCPZOGZFzCG8xMchICVTAOubiEM5ID4urCM+xIV1Ue7FbCs7ilCpym6MMLniY/q1gJgtOxwW6NjJ8mgWQW41FgInt04REkUvvV93sAGqn96rkHtOv4vM/CsxJePBlUpk+GF2+/Cqyq7n92POYbt82aJ6PbW0YyFhfSwbCwujn6LUFNBXpD9zo8zTBSJ9UbK0+aoo70qVJ3c6V+E+SUtTudMUrDNdwGZN9wrB4BFJllbKszoA+St91gHs5sNncMJ6aEhRvscN4n/2rfoB4XjUEtfmyqyhsYs5bHBjv3aoQnC3X51aa147nXc4Trpd6gydaTSrPdKmnsCLcBaoHtGvS8hBytApxfU0ADdVCA2P1R+gcGdeHCFJExJxEPaEg1ZBwkrs6EyCzp49Y8AG2sshCmKdO4EM4xTZkGKqCPQ/EAAdZgyomzQQF7vintdfEKxKmPGb5eBGjwzx/OPwboxeVbwNP+cDh/Srh+7r8d6K3zdwe+/wc=);lineShape=1;strokeColor=default;" vertex="1" parent="1">
          <mxGeometry x="68.47573261941153" y="332.8794345026666" width="1.8957933618572838" height="1.6393976008595808" as="geometry" />
        </mxCell>
        <mxCell id="9BSjSQqRRKVnlHQiKrg5-53" value="" style="shape=stencil(lVjbbtswDP0avxIidX/uuv8o0HQJliVFmu7y96Phyolo5wR5S2Ue8XpIqoN/+ti+vG8GcR/n0/Hn5s/u9bwd/LdBZHfYbk67s/4a/PPgn96Op82P0/Hz8Dr9/f4ySo6/fh1/jzf8nXC1UAwjSty/r5NKZTr5PgH2u8M1IBBLD0iUEwA4cqkHCFWgoQSKPaBkcuU2IFfi2ANUpwcAT6l0gCzkgQ+pkOujlAIloCFJM6ABYiYGTsdIxfUARwKcDpWk1xA8FeCDfpbeaV9aGFYBPlPkHqC5ZwBwVGsHkEoh3gZIoND7oCcVaOBMpc+0OAoCANxKrQE4kXegNCj1ClggHdQDQx8SkASxXIiUwO2OuC8KpgBu16pnI86PiDvoqopXIx4BBVwLxEVcMhIP9vYvdTfEc7TiIK1s6ajiqGxIrDEMXGWKzoh7EEhuOb+IJ1T0lG2aKjTG9DZ1BnBQbc9GPELbvb09gx7CLW4XcWS7ax3sShzcrgVYH7rdB2s7LDEzVbjNpVv0sK6iTjDX61VWMfksm9D8Ua4tKhIUgZLPlhgaVqrbGoPY5GwPvsdVscag6c+2AzsYd6WHjUyEneAhcd+m0TyU24Rbn/otifMeQgWI67zub+c5VuvG6+wygNAosw4olA1AT0Cu1APfx0dDwECDZypmR8itla8DCgWztggcgiGQN2sLXh/joi8E3QZR1lLrSjOgtECvb4PeRknXPbQzp0q+78rjFSDTOdruk7l1jPVSUsr3GnJpq886QC3uAXqC5n9d8Hg8AXmo6kOvQd8aBQFqM2AGZLg+KsCMUn3+OLCUjG+hZAHQh0p1AUBRYrcYBIoogHKjip5BenLHiSoWgOp79NpZABp9+jktHpGI1PrZrs1qJHZaFj6g1UCDaKJ0FelbiJwWKpATDz+d7wP0x+Wl/rbb76eH/vV3+7LXo+m/Av75Pw==);lineShape=1;strokeColor=default;" vertex="1" parent="1">
          <mxGeometry x="69.66331643038444" y="335.8223774192507" width="4.503079962438325" height="3.8687757725522554" as="geometry" />
        </mxCell>
        <mxCell id="9BSjSQqRRKVnlHQiKrg5-54" value="" style="dashed=0;outlineConnect=0;html=1;align=center;labelPosition=center;verticalLabelPosition=bottom;verticalAlign=top;shape=mxgraph.webicons.apache;gradientColor=#DFDEDE" vertex="1" parent="1">
          <mxGeometry x="-152" y="-108" width="102.4" height="102.4" as="geometry" />
        </mxCell>
        <mxCell id="9BSjSQqRRKVnlHQiKrg5-55" value="" style="shape=stencil(lVfRchshDPyae9UIBAc8p+l/ZCZOfVPXzjhO2/x9xFypD/Ctc29n2DXSSkJikIe3/dPrbrD8djmffu7+TM+X/SDfBmun4353ni76NcjjIA8vp/Pux/n0fnyef78+ZWT++nX6nf/h78wzJGMmWf6YF7gsfJ/hh+lYwcdUwS0lvw63ZEwF98QQnmwFj8SyDnckoYIbNc+u48fWV+PJBeAsk5XaW6YQAcGTdzUhkAFyqp7/5CsEEYppnSBMXAfAGXLAJIk01iFw/1dui5rI16r6QMxAVY1ardIYyIMwhJECV4QQKQJCTK2suoLikBKl2mldQSplQmoJHkWauYiyYIwgcvkI3xIi0DVvu46ATxhjS0gg+7KPtQ8Lt9YYsplh7CajYtn+qtuaPNuEjWV7QQh3CF06+TsmdZG4k3/cJ+wdWUNLEIcj18kqoOiyiz0B3MZZROkI4HrNYepVAu0hZ07ntAeElSrFJdEfEbY6EfEJoSvrhCPXByLhe6Dti18o0v7m2JqvCWXTrYqIyOuthBjbJpEY9t7gKdQ3U0hkQWccu2atjQ45nTttnX3aSh04QcKNZo1CbTUOdW7oOIBU0gGmkVUcWeCDceS6kQYWKZnaZ51xGFjk29TTIWoEBSclqIuhD85k5d+uM6UB5qs+9SWm9gHrdVpu5ISF1l1HTA6Iz22VMbyyuQzXV7gFFzYXz65wrIxt/51BaqqpqYVDIX1rDINK0Tm8VQbrHkMLR0lfdhdw1GaKbgshge2mF9LABJbWGIseLVsfdHfg+nF9O75Mh8P89Fzut29NXZrfqfL4CQ==);lineShape=1;strokeColor=default;" vertex="1" parent="1">
          <mxGeometry x="61.81388869009925" y="362.2286745787639" width="10.273182596022261" height="18.048573602333253" as="geometry" />
        </mxCell>
        <mxCell id="9BSjSQqRRKVnlHQiKrg5-56" value="" style="shape=stencil(rVbLctswDPwaXTEkwBfOafofmYlTe+raGcd9/X2hKlZEqNpMZnqTqF1xAWIJDHL3sn943g0cXq6X89fdz8PjdT/Ip4H5cNrvLoerPQ1yP8jd0/my+3I5fz89Tu/PDyNyfPp2/jH+4dfE00raRhaH368rSqX+Xfk8EY6H05IgVHJPyJTDNqEp5dITIuUMCExaO0LLxGCHKlSlI9RCQbcJJVDqgy5MBeyQmKSPISUKIEvMlFNHYEwIJH0IkRQIChTZwUtE8BAdnKEYBw+k8O9RHDw3GGpycAaHFaiwg6OzNanZw0EiI0nwcEbwlZhYELw1BxegnSl47RVo53URBOArvuXtDZ5gZjQ5+KvLNuA1OLiCUOe9Z39QBNotsuLgDCuy8gf+bteBt4fCAo7NZwbUjFWUTyQqgrleF6cK8m5wX2IFaufi4ALheVXvMJHNWxu7KXrt2KvZX0sRwpu3tvw/+Hif97eeFVkCqUxCrW9rCRPK7KC5SwXoqWptsk9/TZRA7bTk+2AT2Mutc7s7xLp7QwST1GfJ5gd0p43TR3/INqE0YHVVf27abobbIqh4goAdYlhZ0hio3f6bgVroKKo3mq2gmcc+19XcltDcpremvCC8cxKuT4+pBs3OPofqCYokNR/DInFbjKSrLZCmdusTyyDADfbxefh9gj28jd9Ph+Nxmt6X3/24bkvTqC/3fwA=);lineShape=1;strokeColor=default;" vertex="1" parent="1">
          <mxGeometry x="107.56903178045013" y="429.4933351282641" width="46.015669111271976" height="44.236559840615996" as="geometry" />
        </mxCell>
        <mxCell id="9BSjSQqRRKVnlHQiKrg5-57" value="" style="shape=stencil(7VnJbhw5DP2avhIitVHnJPMfAeKMG+OxA8eT5e+HmoaqS1TXMwzMIYfc2mVS4vq46BTffb3/+OXuJOHry/PTX3ffz59e7k/x/Unk/Hh/93x+sV+n+OEU331+er778/npn8dPl7+/fOyU/dffT9/6CT8ufEycO5OEn5cPrVFo/33540L/cH7c0SfKcaZXyoro1Z1fKfMxfSZx5xeK+Zi+kKaZPlEtx/Rt3L7RRwrgfBaqOjOYyYACbPLOEqlSC8cMEijKzFAoARW6jWaRNFIBPohC7BgCFaBDClRnHWodd95maFRnHSoWKVdqsx9qIAZKFwu8OZCKuR4Eaj9vVrpEUnBDzZQcA1OoxwxmxBwmhqwUgUiaievMkKGVLHJctmUhBbHUzHGzSOaZAkRq4kVKZWTgEUNxNwhlYCVjCLNZoyEM1iHNsRTz+HLbSnWouDHYnQkwJA8CoqTID0xpVtpyUEECVV1uwDBjwedw0mAB4aTllwsNtpQCfqg8JN4YMmVgVksgnUODI0xRY8izHziMLD9iqLPShpQg9kwFnnWuFNH5PAJtSx9qyAnBo5jVEiy/j1QqwKKlUZsNZMmEalvz2cww6oze2SdAexb1HrayAPLGzg/J0ScALkafi6OP4HyzZ1RHL9i/ycuPSnMVH28B4kRNI9539AC5LIkLv4W+UljokTxK0t6ib6Po7YPsaQWN/fnIX7pUGxwPuiAKjjerlzL7i6khmN4A7Zpf/Eo9dqA7cP6obrhiKQPxbtOLL0wWgCAfu32Ko1eE0Ev+yuiGb9MXasnLg1oos7+Xp6ASkzzeyuiQjmpYdFWSIqYX7y80qxi9uhoJy7zJ7/CZMf4Xn+8MZ6G1K2BYgTW8kV48fvJo1m7TRx8PjOMze7xiWN97Pvp4YCR/9qOTKYTkSb6+yGiKjvR1w6XA5tjavkV+1H0b3mYvP8zHusoPu8rsZ1EZDctRPMfFPqiBi76eyigg/wv9737jd7/xS/cbYcD9lR6OhcuKgXG9bn4EEyhPxxM3OlNB81EjcbM5rl86Nii7+Qjhg/r+qkJ8Nnp2q7BRcI7i09ffAFdnPUDnhOkjKraQ91iGu7YeQk6kCtdOVmNcTEvA24u8NH0CvaDqUcXchspA4+UGxVskq/MzQ2S4W2jVB3bMA1pvMzS/a4s6fH97qxqC7y373glfkdfNFtoM62gmd7uzCsZzM5NPH4Hh2sRrnfPoUI82W86uWcca9KgD1NlKhUleaUHmFC3WxCMMs0iYMaDUES23i/Kyre5lFzDk6lGj9/HoSUKHirttNZo7YvOO62kOgDJGjzOW5qizswRzlVkL3LhbCofZrNrgwvA6Cg8GS3MBOcptAN3GEOF03IFuTqCWoNLG4N+GCkQBrh5nLAfRAHhF942hwQrU/MBo9Gji1fHWtKOHjww+LoweYXdZFG4Q9tKysw24xYu+Y+gXgKgwREoLPUh/XoKoQQRbOrbWYK3aGsYdPRphl6rQKwvQ1zq2hR4F0NZg7ugFRegbn1Nfp7cf17fbz+eHh8vT7/7//q3XPl3eieOHfwE=);lineShape=1;strokeColor=default;" vertex="1" parent="1">
          <mxGeometry x="89.89485029194748" y="125.8716474007233" width="28.98203411807442" height="269.1014697991711" as="geometry" />
        </mxCell>
        <mxCell id="9BSjSQqRRKVnlHQiKrg5-58" value="" style="shape=stencil(lVbLUsMwDPyaXDWWbPlxhvIfzNDSDKVl2vL6e2QySSq3EcPNcbKxV7sru/N3p+3j27ojdzofDy/rz/7pvO38fUfU77frY3+WUedXnb/bHI7r5+Phff80PL891i/r6PXwUf/wNeByASwVRe57mPERAv3OPAyAXb+/AJQIFBQgyIw3AAVSVgBOkJIJCKwAsUAOBoCBNIeMgMYKWTZAClAccF4GpASsSZcEriwDIkPWK6Bz4Nwygn1bJqmDM4QIBLEBBCBeBngPsSlTBDRYk5RJs04M0agrMYSklfOQ0VwBnfYGQrY4ULtCQHCGN+pr1P4mYEsHHL02AuomjRVmihOAgQ3ScxEvVkiGmapMTUbFLFbkJiNMVaLR8UuRc9qubAt34eZJajaVq4HRdq2higZAIqnLVGNrsK6hjzoQDN6QurYVrVxtPcaW+CoQc3O77b4r5YrdLKX5el2luUEvAsp/ABTBaW9kEc4gjbGtUnaAltJA2hlJQmvI4Ns+Jolyxv/FF5oASyc0CFw5VXqC2ZTAaRt5NPlGiDo7hKbt0I/lmM4GGk+L2xuiNp1iIoOA7Lfo5NhN9fok+fOoYmy+T0oAGcwXjk2/2w33lcv37QVFpobLjV/9AA==);lineShape=1;strokeColor=default;" vertex="1" parent="1">
          <mxGeometry x="-159.6624100501365" y="325.7609461066281" width="4.604393588074995" height="4.606925970628514" as="geometry" />
        </mxCell>
        <mxCell id="9BSjSQqRRKVnlHQiKrg5-62" value="" style="shape=mxgraph.signs.nature.sun_3;html=1;pointerEvents=1;fillColor=#000000;strokeColor=none;verticalLabelPosition=bottom;verticalAlign=top;align=center;sketch=0;" vertex="1" parent="1">
          <mxGeometry x="389" y="-167" width="98" height="98" as="geometry" />
        </mxCell>
        <mxCell id="9BSjSQqRRKVnlHQiKrg5-63" value="" style="shape=mxgraph.signs.science.microscope;html=1;pointerEvents=1;fillColor=#000000;strokeColor=none;verticalLabelPosition=bottom;verticalAlign=top;align=center;sketch=0;" vertex="1" parent="1">
          <mxGeometry x="-302" y="288" width="64" height="99" as="geometry" />
        </mxCell>
        <mxCell id="9BSjSQqRRKVnlHQiKrg5-64" value="" style="shape=mxgraph.signs.tech.camera_2;html=1;pointerEvents=1;fillColor=#000000;strokeColor=none;verticalLabelPosition=bottom;verticalAlign=top;align=center;sketch=0;" vertex="1" parent="1">
          <mxGeometry x="145" y="441" width="99" height="72" as="geometry" />
        </mxCell>
        <mxCell id="9BSjSQqRRKVnlHQiKrg5-65" value="" style="shape=mxgraph.signs.tech.firewire;html=1;pointerEvents=1;fillColor=#000000;strokeColor=none;verticalLabelPosition=bottom;verticalAlign=top;align=center;sketch=0;" vertex="1" parent="1">
          <mxGeometry x="135" y="182" width="93" height="99" as="geometry" />
        </mxCell>
        <mxCell id="9BSjSQqRRKVnlHQiKrg5-66" value="" style="shape=mxgraph.signs.safety.slip_hazard;html=1;pointerEvents=1;fillColor=#000000;strokeColor=none;verticalLabelPosition=bottom;verticalAlign=top;align=center;sketch=0;" vertex="1" parent="1">
          <mxGeometry x="-17" y="90" width="78" height="100" as="geometry" />
        </mxCell>
      </root>
    </mxGraphModel>
  </diagram>
</mxfile>
